<svg width="32" height="32" viewBox="0 0 32 32" fill="none" xmlns="http://www.w3.org/2000/svg">
<path d="M29.2213 12.1939H27.3094C27.108 11.599 26.8975 11.1037 26.6554 10.6268L26.687 10.6949L28.0477 9.34842C28.4036 9.04332 28.6274 8.59382 28.6274 8.09143C28.6274 7.67853 28.4758 7.30021 28.2247 7.01037L28.2267 7.01241L24.9947 3.78043C24.7069 3.53026 24.3296 3.37873 23.9157 3.37873C23.4133 3.37873 22.9628 3.60348 22.6607 3.95841L22.6587 3.96044L21.3041 5.31303C20.8953 5.10353 20.401 4.89301 19.8905 4.71707L19.8071 4.69165L19.8162 2.77972C19.8193 2.73904 19.8213 2.69226 19.8213 2.64446C19.8213 1.77596 19.1501 1.06407 18.2979 1H18.2928H13.7204C12.8621 1.06407 12.1899 1.77596 12.1899 2.64446C12.1899 2.69226 12.1919 2.73904 12.196 2.78582V2.77972V4.69063C11.601 4.892 11.1068 5.10149 10.6298 5.34252L10.698 5.31099L9.35147 3.9523C9.04739 3.59433 8.59687 3.36957 8.09448 3.36957C7.68057 3.36957 7.30326 3.52212 7.01342 3.77331L7.01546 3.77128L3.78247 7.00427C3.53229 7.29208 3.37974 7.6704 3.37974 8.08329C3.37974 8.58568 3.60449 9.03621 3.95942 9.33825L3.96146 9.34028L5.31303 10.6919C5.10251 11.1017 4.892 11.598 4.71606 12.1105L4.69165 12.1939L2.77972 12.1848C2.73904 12.1817 2.69226 12.1797 2.64446 12.1797C1.77596 12.1797 1.06407 12.8519 1 13.7042V13.7092V18.2806C1.06305 19.1389 1.77596 19.8111 2.64446 19.8111C2.69226 19.8111 2.73904 19.8091 2.78582 19.805H2.77972H4.69165C4.89301 20.4 5.10251 20.8953 5.34455 21.3722L5.31404 21.3051L3.95637 22.6475C3.59941 22.9526 3.37466 23.4041 3.37466 23.9076C3.37466 24.3215 3.52619 24.6998 3.77738 24.9896L3.77535 24.9876L7.00834 28.2196C7.26157 28.4697 7.60938 28.6253 7.99481 28.6253C8.00193 28.6253 8.00905 28.6253 8.01617 28.6253H8.01515C8.5389 28.6121 9.00875 28.3904 9.34537 28.0396L9.34638 28.0385L10.699 26.686C11.1088 26.8965 11.6051 27.107 12.1177 27.2829L12.2011 27.3083L12.1919 29.2182C12.1889 29.2589 12.1868 29.3057 12.1868 29.3525C12.1868 30.221 12.859 30.9339 13.7113 30.997H13.7164H18.2887C19.146 30.9319 19.8172 30.221 19.8172 29.3525C19.8172 29.3047 19.8152 29.2579 19.8111 29.2111V29.2172V27.3043C20.4061 27.1029 20.9024 26.8924 21.3804 26.6504L21.3122 26.6819L22.6556 28.0375C22.9933 28.3874 23.4621 28.6091 23.9818 28.6213H23.9838H23.9859C23.992 28.6213 23.9991 28.6213 24.0052 28.6213C24.3896 28.6213 24.7374 28.4677 24.9927 28.2196L28.2236 24.9886C28.4718 24.7354 28.6253 24.3876 28.6253 24.0042C28.6253 23.995 28.6253 23.9869 28.6253 23.9777C28.6131 23.456 28.3925 22.9892 28.0436 22.6526L28.0426 22.6516L26.689 21.297C26.8985 20.8891 27.108 20.3949 27.285 19.8844L27.3104 19.8L29.2213 19.8091C29.262 19.8122 29.3088 19.8142 29.3555 19.8142C30.2251 19.8142 30.9369 19.142 31 18.2887V18.2836V13.7123C30.9359 12.854 30.224 12.1828 29.3545 12.1828C29.3067 12.1828 29.2599 12.1848 29.2142 12.1889H29.2203L29.2213 12.1939ZM29.2254 18.2897L26.7683 18.2775C26.748 18.2775 26.7307 18.2877 26.7114 18.2887C26.51 18.3131 26.3331 18.4057 26.2019 18.5419C26.1459 18.6152 26.0971 18.6975 26.0585 18.786L26.0554 18.7942C26.0503 18.8084 26.0392 18.8186 26.0351 18.8338C25.791 19.6922 25.4727 20.4396 25.0751 21.1363L25.1015 21.0864C25.0466 21.1881 25.014 21.3081 25.014 21.4363C25.014 21.4373 25.014 21.4393 25.014 21.4404C25.014 21.4566 25.0171 21.4688 25.0181 21.4861C25.0242 21.6763 25.0995 21.8471 25.2205 21.9753L25.2296 21.9987L26.9656 23.7367C27.0765 23.8476 27.105 23.9554 27.1446 23.9157L23.9899 27.1019C23.8893 27.0887 23.8008 27.0399 23.7377 26.9697L22.0119 25.2276C22.0038 25.2184 21.9895 25.2225 21.9814 25.2144C21.8583 25.1005 21.6966 25.0283 21.5176 25.0181H21.5156C21.4953 25.0151 21.4709 25.013 21.4465 25.012C21.3193 25.012 21.1983 25.0445 21.0946 25.1015L21.0986 25.0995C20.4518 25.4676 19.7023 25.7869 18.9162 26.0178L18.8409 26.0371C18.8257 26.0412 18.8155 26.0524 18.8013 26.0575C18.7037 26.1002 18.6192 26.151 18.542 26.209L18.545 26.207C18.5094 26.2415 18.4779 26.2792 18.4504 26.3188L18.4484 26.3209C18.4209 26.3544 18.3945 26.392 18.3721 26.4327L18.3701 26.4368C18.3365 26.5192 18.3101 26.6148 18.2958 26.7154L18.2948 26.7226C18.2938 26.7388 18.2847 26.7541 18.2847 26.7704V29.2233C18.2847 29.3759 18.2287 29.4755 18.2847 29.4776L13.7998 29.501C13.7469 29.4328 13.7143 29.3454 13.7143 29.2508C13.7143 29.2427 13.7143 29.2345 13.7153 29.2264L13.7276 26.7744C13.7276 26.7571 13.7194 26.7419 13.7174 26.7256C13.7123 26.6717 13.7021 26.6219 13.6869 26.5741L13.6879 26.5792C13.6757 26.5253 13.6594 26.4775 13.6391 26.4317L13.6411 26.4368C13.5882 26.3493 13.5303 26.2741 13.4652 26.2059C13.4357 26.1815 13.4021 26.1592 13.3675 26.1388L13.3635 26.1368C13.3187 26.1063 13.2689 26.0798 13.215 26.0595L13.2099 26.0575C13.1957 26.0524 13.1855 26.0412 13.1702 26.0371C12.3089 25.792 11.5583 25.4737 10.8597 25.0771L10.9115 25.1035C10.8108 25.0486 10.6919 25.0161 10.5647 25.0161C10.5424 25.0151 10.5241 25.0201 10.5017 25.0212C10.3186 25.0293 10.1539 25.1025 10.0288 25.2174C10.0206 25.2256 10.0084 25.2215 10.0003 25.2296L8.26635 26.9636C8.15753 27.0724 8.04668 27.105 8.08532 27.1446L4.8981 23.9909C4.9103 23.8893 4.95912 23.8008 5.03031 23.7367L6.77342 22.0129L6.7846 21.9865C6.90156 21.8614 6.97681 21.6956 6.98495 21.5126V21.5105C6.98597 21.4892 6.99003 21.4729 6.99003 21.4515C6.99003 21.4505 6.99003 21.4495 6.99003 21.4485C6.99003 21.3204 6.95749 21.1993 6.90054 21.0946L6.90257 21.0986C6.53137 20.4518 6.21204 19.7044 5.98424 18.9172L5.96593 18.844C5.96186 18.8287 5.94966 18.8176 5.94457 18.8023C5.90186 18.7067 5.85305 18.6233 5.79609 18.5481L5.79813 18.5511C5.73202 18.4891 5.65982 18.4321 5.58253 18.3833L5.57643 18.3803C5.52456 18.3548 5.46558 18.3345 5.40252 18.3223L5.39744 18.3213C5.36794 18.3121 5.33133 18.305 5.2937 18.2999H5.28964C5.2693 18.2979 5.25201 18.2877 5.23065 18.2877H2.77769C2.62311 18.2897 2.52548 18.2318 2.52344 18.2857L2.50107 13.8018C2.56921 13.7489 2.65463 13.7164 2.74921 13.7164C2.75836 13.7164 2.7665 13.7164 2.77565 13.7174H2.77464L5.23167 13.7296C5.38625 13.7255 5.52863 13.6747 5.64558 13.5913L5.64355 13.5933C5.66795 13.5791 5.68829 13.5648 5.70863 13.5496L5.7066 13.5506C5.81745 13.4611 5.90084 13.3411 5.94559 13.2038L5.94661 13.1987C5.94966 13.1885 5.96085 13.1845 5.9639 13.1733C6.21001 12.3119 6.52832 11.5634 6.92596 10.8647L6.89952 10.9156C6.95444 10.8139 6.98698 10.6939 6.98698 10.5657C6.98698 10.5647 6.98698 10.5647 6.98698 10.5637C6.988 10.5444 6.98393 10.5302 6.98291 10.5108C6.9758 10.3237 6.90156 10.1549 6.78257 10.0278L6.7724 10.0034L5.03844 8.2694C4.92861 8.15753 4.89403 8.04465 4.85945 8.08838L8.01414 4.90115C8.11685 4.90929 8.20635 4.96013 8.26635 5.03437L8.26736 5.03539L9.99319 6.77748C10.0115 6.79579 10.04 6.78867 10.0593 6.80494C10.1864 6.928 10.3593 7.00427 10.5505 7.00427C10.6827 7.00427 10.8058 6.96766 10.9115 6.90461L10.9085 6.90664C11.5553 6.53646 12.3038 6.21814 13.0899 5.98932L13.1631 5.97102C13.1774 5.96695 13.1875 5.95576 13.2018 5.95169C13.2597 5.93034 13.3086 5.90389 13.3553 5.87339L13.3523 5.87542C13.5181 5.78389 13.6381 5.62728 13.6787 5.44117L13.6798 5.4371C13.694 5.39337 13.7052 5.34252 13.7103 5.28964V5.28659C13.7113 5.27031 13.7194 5.25608 13.7194 5.2398V2.78684C13.7194 2.63328 13.7764 2.53361 13.7204 2.53259L18.2053 2.5092C18.2582 2.57734 18.2897 2.66379 18.2897 2.75836C18.2897 2.76752 18.2897 2.77565 18.2887 2.78481L18.2765 5.23675C18.2765 5.25303 18.2847 5.26726 18.2857 5.28455C18.2908 5.34049 18.3009 5.39235 18.3172 5.44218L18.3162 5.4371C18.3884 5.67507 18.5633 5.86322 18.7881 5.95169L18.7931 5.95373C18.8074 5.95881 18.8186 5.97 18.8328 5.97407C19.6922 6.22018 20.4396 6.53849 21.1363 6.93512L21.0854 6.90867C21.1922 6.96969 21.3203 7.00631 21.4576 7.00631H21.4587C21.6448 6.99817 21.8116 6.92291 21.9377 6.80494C21.9549 6.78969 21.9814 6.79681 21.9977 6.78053L23.7357 5.04658C23.8425 4.93878 23.9523 4.90725 23.9147 4.86759L27.1009 8.02227C27.0887 8.12397 27.0409 8.21143 26.9697 8.2755L25.2256 10.0013L25.2144 10.0278C25.0964 10.1529 25.0212 10.3196 25.013 10.5037V10.5057C25.012 10.5261 25.0079 10.5424 25.0079 10.5627C25.0079 10.5637 25.0079 10.5647 25.0079 10.5657C25.0079 10.6939 25.0405 10.8149 25.0974 10.9197L25.0954 10.9156C25.4666 11.5624 25.7859 12.3099 26.0127 13.096L26.031 13.1682C26.0341 13.1804 26.0473 13.1855 26.0503 13.1967C26.0971 13.336 26.1795 13.454 26.2863 13.5414L26.2873 13.5425C26.3066 13.5577 26.329 13.573 26.3514 13.5862L26.3544 13.5882C26.4683 13.6696 26.6107 13.7204 26.7632 13.7245H29.2172C29.3718 13.7235 29.4694 13.7825 29.4715 13.7255L29.4928 18.2094C29.4267 18.2633 29.3413 18.2958 29.2488 18.2958C29.2386 18.2958 29.2294 18.2958 29.2193 18.2948H29.2203L29.2254 18.2897ZM16.0005 11.1709C13.333 11.1709 11.1698 13.334 11.1698 16.0015C11.1698 18.6691 13.333 20.8322 16.0005 20.8322C18.6681 20.8322 20.8312 18.6691 20.8312 16.0015C20.8281 13.335 18.667 11.1739 16.0005 11.1709ZM16.0005 19.3067C14.175 19.3067 12.6953 17.827 12.6953 16.0015C12.6953 14.176 14.175 12.6963 16.0005 12.6963C17.826 12.6963 19.3057 14.176 19.3057 16.0015C19.3037 17.826 17.825 19.3047 16.0005 19.3067Z" fill="white" stroke="white"/>
</svg>
